<mxfile host="Electron" agent="Mozilla/5.0 (Windows NT 10.0; Win64; x64) AppleWebKit/537.36 (KHTML, like Gecko) draw.io/27.0.9 Chrome/134.0.6998.205 Electron/35.4.0 Safari/537.36" version="27.0.9">
  <diagram name="Page-1" id="L7R0kkTj44kEcNw-LDx3">
    <mxGraphModel dx="2276" dy="859" grid="1" gridSize="10" guides="1" tooltips="1" connect="1" arrows="1" fold="1" page="1" pageScale="1" pageWidth="850" pageHeight="1100" math="0" shadow="0">
      <root>
        <mxCell id="0" />
        <mxCell id="1" parent="0" />
        <mxCell id="05Xbj3aejP6-9u8qnmge-7" style="edgeStyle=orthogonalEdgeStyle;rounded=1;orthogonalLoop=1;jettySize=auto;html=1;exitX=1;exitY=0.25;exitDx=0;exitDy=0;entryX=0;entryY=0.75;entryDx=0;entryDy=0;curved=0;" edge="1" parent="1" source="05Xbj3aejP6-9u8qnmge-1" target="05Xbj3aejP6-9u8qnmge-4">
          <mxGeometry relative="1" as="geometry" />
        </mxCell>
        <mxCell id="05Xbj3aejP6-9u8qnmge-25" style="edgeStyle=orthogonalEdgeStyle;rounded=1;orthogonalLoop=1;jettySize=auto;html=1;exitX=1;exitY=0.75;exitDx=0;exitDy=0;entryX=0.5;entryY=1;entryDx=0;entryDy=0;curved=0;" edge="1" parent="1" source="05Xbj3aejP6-9u8qnmge-1" target="05Xbj3aejP6-9u8qnmge-31">
          <mxGeometry relative="1" as="geometry">
            <mxPoint x="740" y="300" as="targetPoint" />
          </mxGeometry>
        </mxCell>
        <mxCell id="05Xbj3aejP6-9u8qnmge-1" value="&lt;div&gt;&lt;font style=&quot;color: rgb(26, 26, 26);&quot;&gt;Affine Aligned&lt;/font&gt;&lt;/div&gt;&lt;font style=&quot;color: rgb(26, 26, 26);&quot;&gt;Reference Image&lt;/font&gt;&lt;div&gt;&lt;font color=&quot;#1a1a1a&quot;&gt;&lt;br&gt;&lt;/font&gt;&lt;div&gt;&lt;font face=&quot;Cambria&quot; style=&quot;color: rgb(26, 26, 26);&quot;&gt;&lt;i&gt;&lt;font style=&quot;font-size: 16px;&quot;&gt;I&lt;sub&gt;af&lt;/sub&gt;&lt;/font&gt;&lt;font style=&quot;font-size: 16px;&quot;&gt;&lt;sub&gt;&lt;font style=&quot;&quot;&gt;ref&lt;/font&gt;&amp;nbsp;&lt;/sub&gt;&lt;/font&gt;&lt;/i&gt;&lt;/font&gt;&lt;/div&gt;&lt;/div&gt;" style="rounded=1;whiteSpace=wrap;html=1;fillColor=#fff2cc;gradientColor=#ffd966;strokeColor=#d6b656;" vertex="1" parent="1">
          <mxGeometry x="40" y="280" width="120" height="120" as="geometry" />
        </mxCell>
        <mxCell id="05Xbj3aejP6-9u8qnmge-8" style="edgeStyle=orthogonalEdgeStyle;rounded=1;orthogonalLoop=1;jettySize=auto;html=1;exitX=1;exitY=0.25;exitDx=0;exitDy=0;entryX=0;entryY=0.25;entryDx=0;entryDy=0;curved=0;" edge="1" parent="1" source="05Xbj3aejP6-9u8qnmge-2" target="05Xbj3aejP6-9u8qnmge-4">
          <mxGeometry relative="1" as="geometry" />
        </mxCell>
        <mxCell id="05Xbj3aejP6-9u8qnmge-33" style="edgeStyle=orthogonalEdgeStyle;rounded=1;orthogonalLoop=1;jettySize=auto;html=1;exitX=1;exitY=0.75;exitDx=0;exitDy=0;entryX=0;entryY=0.25;entryDx=0;entryDy=0;strokeColor=default;curved=0;" edge="1" parent="1" source="05Xbj3aejP6-9u8qnmge-2" target="05Xbj3aejP6-9u8qnmge-16">
          <mxGeometry relative="1" as="geometry">
            <Array as="points">
              <mxPoint x="-40" y="270" />
              <mxPoint x="-40" y="500" />
            </Array>
          </mxGeometry>
        </mxCell>
        <mxCell id="05Xbj3aejP6-9u8qnmge-2" value="&lt;font style=&quot;color: rgb(26, 26, 26);&quot;&gt;Main Image&lt;/font&gt;&lt;div&gt;&lt;font color=&quot;#1a1a1a&quot;&gt;&lt;br&gt;&lt;/font&gt;&lt;div&gt;&lt;font face=&quot;Cambria&quot; style=&quot;color: rgb(26, 26, 26); font-size: 16px;&quot;&gt;&lt;i style=&quot;&quot;&gt;I&lt;sub style=&quot;&quot;&gt;main&lt;/sub&gt;&lt;/i&gt;&lt;/font&gt;&lt;/div&gt;&lt;/div&gt;" style="rounded=1;whiteSpace=wrap;html=1;fillColor=#fff2cc;gradientColor=#ffd966;strokeColor=#d6b656;" vertex="1" parent="1">
          <mxGeometry x="-210" y="180" width="120" height="120" as="geometry" />
        </mxCell>
        <mxCell id="05Xbj3aejP6-9u8qnmge-28" style="edgeStyle=orthogonalEdgeStyle;rounded=1;orthogonalLoop=1;jettySize=auto;html=1;exitX=0.25;exitY=0;exitDx=0;exitDy=0;entryX=0.75;entryY=0;entryDx=0;entryDy=0;curved=0;" edge="1" parent="1" source="05Xbj3aejP6-9u8qnmge-4" target="05Xbj3aejP6-9u8qnmge-5">
          <mxGeometry relative="1" as="geometry">
            <Array as="points">
              <mxPoint x="270" y="80" />
              <mxPoint x="460" y="80" />
            </Array>
          </mxGeometry>
        </mxCell>
        <mxCell id="05Xbj3aejP6-9u8qnmge-29" style="edgeStyle=orthogonalEdgeStyle;rounded=1;orthogonalLoop=1;jettySize=auto;html=1;exitX=0.5;exitY=0;exitDx=0;exitDy=0;entryX=0.5;entryY=0;entryDx=0;entryDy=0;curved=0;" edge="1" parent="1" source="05Xbj3aejP6-9u8qnmge-4" target="05Xbj3aejP6-9u8qnmge-5">
          <mxGeometry relative="1" as="geometry">
            <Array as="points">
              <mxPoint x="300" y="110" />
              <mxPoint x="430" y="110" />
            </Array>
          </mxGeometry>
        </mxCell>
        <mxCell id="05Xbj3aejP6-9u8qnmge-30" style="edgeStyle=orthogonalEdgeStyle;rounded=1;orthogonalLoop=1;jettySize=auto;html=1;exitX=0.75;exitY=0;exitDx=0;exitDy=0;entryX=0.25;entryY=0;entryDx=0;entryDy=0;curved=0;" edge="1" parent="1" source="05Xbj3aejP6-9u8qnmge-4" target="05Xbj3aejP6-9u8qnmge-5">
          <mxGeometry relative="1" as="geometry">
            <Array as="points">
              <mxPoint x="330" y="140" />
              <mxPoint x="400" y="140" />
            </Array>
          </mxGeometry>
        </mxCell>
        <mxCell id="05Xbj3aejP6-9u8qnmge-4" value="&lt;font color=&quot;#1a1a1a&quot;&gt;Transformer&lt;/font&gt;&lt;div&gt;&lt;font color=&quot;#1a1a1a&quot;&gt;Encoder&lt;/font&gt;&lt;/div&gt;" style="rounded=1;whiteSpace=wrap;html=1;fillColor=#f8cecc;gradientColor=#ea6b66;strokeColor=#b85450;" vertex="1" parent="1">
          <mxGeometry x="240" y="180" width="120" height="120" as="geometry" />
        </mxCell>
        <mxCell id="05Xbj3aejP6-9u8qnmge-10" style="edgeStyle=orthogonalEdgeStyle;rounded=0;orthogonalLoop=1;jettySize=auto;html=1;exitX=1;exitY=0.5;exitDx=0;exitDy=0;entryX=0;entryY=0.5;entryDx=0;entryDy=0;" edge="1" parent="1" source="05Xbj3aejP6-9u8qnmge-5" target="05Xbj3aejP6-9u8qnmge-9">
          <mxGeometry relative="1" as="geometry" />
        </mxCell>
        <mxCell id="05Xbj3aejP6-9u8qnmge-5" value="&lt;font color=&quot;#1a1a1a&quot;&gt;CNN&lt;/font&gt;&lt;div&gt;&lt;font color=&quot;#1a1a1a&quot;&gt;Decoder&lt;/font&gt;&lt;/div&gt;" style="rounded=1;whiteSpace=wrap;html=1;fillColor=#d5e8d4;gradientColor=#97d077;strokeColor=#82b366;" vertex="1" parent="1">
          <mxGeometry x="370" y="180" width="120" height="120" as="geometry" />
        </mxCell>
        <mxCell id="05Xbj3aejP6-9u8qnmge-12" style="edgeStyle=orthogonalEdgeStyle;rounded=0;orthogonalLoop=1;jettySize=auto;html=1;exitX=1;exitY=0.5;exitDx=0;exitDy=0;entryX=0;entryY=0.5;entryDx=0;entryDy=0;" edge="1" parent="1" source="05Xbj3aejP6-9u8qnmge-9" target="05Xbj3aejP6-9u8qnmge-31">
          <mxGeometry relative="1" as="geometry">
            <mxPoint x="680" y="240" as="targetPoint" />
          </mxGeometry>
        </mxCell>
        <mxCell id="05Xbj3aejP6-9u8qnmge-9" value="&lt;font color=&quot;#1a1a1a&quot;&gt;Deformation&lt;/font&gt;&lt;div&gt;&lt;font color=&quot;#1a1a1a&quot;&gt;Field&lt;/font&gt;&lt;/div&gt;&lt;div&gt;&lt;font color=&quot;#1a1a1a&quot;&gt;&lt;br&gt;&lt;/font&gt;&lt;/div&gt;&lt;div&gt;&lt;font face=&quot;Cambria&quot; style=&quot;font-size: 16px;&quot; color=&quot;#1a1a1a&quot;&gt;&lt;i style=&quot;&quot;&gt;D&lt;/i&gt;&lt;/font&gt;&lt;/div&gt;" style="rounded=1;whiteSpace=wrap;html=1;fillColor=#f5f5f5;gradientColor=#b3b3b3;strokeColor=#666666;" vertex="1" parent="1">
          <mxGeometry x="520" y="180" width="120" height="120" as="geometry" />
        </mxCell>
        <mxCell id="05Xbj3aejP6-9u8qnmge-13" value="&lt;font style=&quot;color: rgb(26, 26, 26);&quot;&gt;Deformed Image&lt;/font&gt;&lt;div&gt;&lt;font color=&quot;#1a1a1a&quot;&gt;&lt;br&gt;&lt;/font&gt;&lt;div&gt;&lt;font face=&quot;Cambria&quot; style=&quot;color: rgb(26, 26, 26);&quot;&gt;&lt;i&gt;&lt;font style=&quot;font-size: 16px;&quot;&gt;I&lt;sub&gt;def&lt;/sub&gt;&lt;/font&gt;&lt;sub&gt;&lt;font style=&quot;font-size: 13.3333px;&quot;&gt;&amp;nbsp;&lt;/font&gt;&lt;/sub&gt;&lt;/i&gt;&lt;/font&gt;&lt;/div&gt;&lt;/div&gt;" style="rounded=1;whiteSpace=wrap;html=1;fillColor=#fff2cc;gradientColor=#ffd966;strokeColor=#d6b656;" vertex="1" parent="1">
          <mxGeometry x="760" y="180" width="120" height="120" as="geometry" />
        </mxCell>
        <mxCell id="05Xbj3aejP6-9u8qnmge-18" style="edgeStyle=orthogonalEdgeStyle;rounded=1;orthogonalLoop=1;jettySize=auto;html=1;exitX=1;exitY=0.25;exitDx=0;exitDy=0;entryX=0;entryY=0.75;entryDx=0;entryDy=0;curved=0;" edge="1" parent="1" source="05Xbj3aejP6-9u8qnmge-15" target="05Xbj3aejP6-9u8qnmge-16">
          <mxGeometry relative="1" as="geometry" />
        </mxCell>
        <mxCell id="05Xbj3aejP6-9u8qnmge-22" style="edgeStyle=orthogonalEdgeStyle;rounded=1;orthogonalLoop=1;jettySize=auto;html=1;exitX=1;exitY=0.75;exitDx=0;exitDy=0;entryX=0.5;entryY=1;entryDx=0;entryDy=0;curved=0;" edge="1" parent="1" source="05Xbj3aejP6-9u8qnmge-15" target="05Xbj3aejP6-9u8qnmge-19">
          <mxGeometry relative="1" as="geometry" />
        </mxCell>
        <mxCell id="05Xbj3aejP6-9u8qnmge-15" value="&lt;font style=&quot;color: rgb(26, 26, 26);&quot;&gt;Reference Image&lt;/font&gt;&lt;div&gt;&lt;font color=&quot;#1a1a1a&quot;&gt;&lt;br&gt;&lt;/font&gt;&lt;div&gt;&lt;font face=&quot;Cambria&quot; style=&quot;color: rgb(26, 26, 26);&quot;&gt;&lt;i&gt;&lt;font style=&quot;font-size: 16px;&quot;&gt;I&lt;/font&gt;&lt;sub&gt;&lt;font style=&quot;font-size: 13.3333px;&quot;&gt;&lt;font style=&quot;&quot;&gt;ref&lt;/font&gt;&amp;nbsp;&lt;/font&gt;&lt;/sub&gt;&lt;/i&gt;&lt;/font&gt;&lt;/div&gt;&lt;/div&gt;" style="rounded=1;whiteSpace=wrap;html=1;fillColor=#fff2cc;gradientColor=#ffd966;strokeColor=#d6b656;" vertex="1" parent="1">
          <mxGeometry x="40" y="570" width="120" height="120" as="geometry" />
        </mxCell>
        <mxCell id="05Xbj3aejP6-9u8qnmge-21" value="Rotation&lt;div&gt;Translation&lt;/div&gt;&lt;div&gt;Shear&lt;/div&gt;&lt;div&gt;Scale&lt;/div&gt;" style="edgeStyle=orthogonalEdgeStyle;rounded=0;orthogonalLoop=1;jettySize=auto;html=1;" edge="1" parent="1" source="05Xbj3aejP6-9u8qnmge-16" target="05Xbj3aejP6-9u8qnmge-19">
          <mxGeometry relative="1" as="geometry" />
        </mxCell>
        <mxCell id="05Xbj3aejP6-9u8qnmge-16" value="&lt;font color=&quot;#1a1a1a&quot;&gt;Affine&lt;br&gt;Swin Transformer&lt;/font&gt;" style="rounded=1;whiteSpace=wrap;html=1;fillColor=#f8cecc;gradientColor=#ea6b66;strokeColor=#b85450;" vertex="1" parent="1">
          <mxGeometry x="240" y="470" width="120" height="120" as="geometry" />
        </mxCell>
        <mxCell id="05Xbj3aejP6-9u8qnmge-24" style="edgeStyle=orthogonalEdgeStyle;rounded=1;orthogonalLoop=1;jettySize=auto;html=1;exitX=1;exitY=0.5;exitDx=0;exitDy=0;entryX=0;entryY=0.5;entryDx=0;entryDy=0;curved=0;" edge="1" parent="1" source="05Xbj3aejP6-9u8qnmge-19" target="05Xbj3aejP6-9u8qnmge-1">
          <mxGeometry relative="1" as="geometry">
            <Array as="points">
              <mxPoint x="690" y="530" />
              <mxPoint x="690" y="440" />
              <mxPoint y="440" />
              <mxPoint y="340" />
            </Array>
          </mxGeometry>
        </mxCell>
        <mxCell id="05Xbj3aejP6-9u8qnmge-19" value="&lt;div&gt;&lt;font color=&quot;#1a1a1a&quot;&gt;Affine&lt;/font&gt;&lt;/div&gt;&lt;div&gt;&lt;font color=&quot;#1a1a1a&quot;&gt;Transform&lt;/font&gt;&lt;/div&gt;&lt;div&gt;&lt;font color=&quot;#1a1a1a&quot;&gt;&lt;br&gt;&lt;/font&gt;&lt;/div&gt;&lt;div&gt;&lt;font face=&quot;Cambria&quot; color=&quot;#1a1a1a&quot;&gt;&lt;span style=&quot;font-size: 16px;&quot;&gt;&lt;i&gt;A&lt;/i&gt;&lt;/span&gt;&lt;/font&gt;&lt;/div&gt;" style="rounded=1;whiteSpace=wrap;html=1;fillColor=#f5f5f5;gradientColor=#b3b3b3;strokeColor=#666666;" vertex="1" parent="1">
          <mxGeometry x="520" y="470" width="120" height="120" as="geometry" />
        </mxCell>
        <mxCell id="05Xbj3aejP6-9u8qnmge-27" style="edgeStyle=orthogonalEdgeStyle;rounded=0;orthogonalLoop=1;jettySize=auto;html=1;exitX=1;exitY=0.5;exitDx=0;exitDy=0;entryX=0;entryY=0.5;entryDx=0;entryDy=0;" edge="1" parent="1" source="05Xbj3aejP6-9u8qnmge-31" target="05Xbj3aejP6-9u8qnmge-13">
          <mxGeometry relative="1" as="geometry">
            <mxPoint x="800" y="240" as="sourcePoint" />
          </mxGeometry>
        </mxCell>
        <mxCell id="05Xbj3aejP6-9u8qnmge-31" value="Spatial&lt;div&gt;Transform&lt;/div&gt;" style="shape=orEllipse;perimeter=ellipsePerimeter;whiteSpace=wrap;html=1;backgroundOutline=1;strokeWidth=2;labelPosition=center;verticalLabelPosition=top;align=center;verticalAlign=bottom;" vertex="1" parent="1">
          <mxGeometry x="700" y="225" width="30" height="30" as="geometry" />
        </mxCell>
      </root>
    </mxGraphModel>
  </diagram>
</mxfile>
